Coordinates
version=1
nRows=14
nColumns=36
inDegrees=yes

Units are S.I. units (second, meters, Newtons, ...)
If the header above contains a line with 'inDegrees', this indicates whether rotational values are in degrees (yes) or radians (no).

endheader
time	pelvis_tilt	pelvis_list	pelvis_rotation	pelvis_tx	pelvis_ty	pelvis_tz	hip_flexion_r	hip_adduction_r	hip_rotation_r	knee_angle_r	knee_angle_r_beta	ankle_angle_r	subtalar_angle_r	mtp_angle_r	hip_flexion_l	hip_adduction_l	hip_rotation_l	knee_angle_l	knee_angle_l_beta	ankle_angle_l	subtalar_angle_l	mtp_angle_l	lumbar_extension	lumbar_bending	lumbar_rotation	arm_flex_r	arm_add_r	arm_rot_r	elbow_flex_r	pro_sup_r	arm_flex_l	arm_add_l	arm_rot_l	elbow_flex_l	pro_sup_l
      0.98333330	     27.43014385	      2.96960860	      5.60512183	     -0.17721385	      0.66356369	     -0.02988197	     51.12589869	    -11.17219634	      0.68519766	     86.77614375	      1.51452942	      3.69939450	    -20.73462573	     -7.50699853	     56.11899640	     -2.68538287	      5.83606229	     90.75967923	      1.58405523	      6.80220831	     -7.67965838	     -7.50699853	    -49.20573234	      0.43032589	     -2.30480694	     22.87149110	     -2.87939725	     33.26426371	     62.02815908	     81.76483194	     17.76901256	     -5.69827910	     32.57455307	     75.02749133	     72.08608261
      1.00000000	     27.51194506	      2.68371657	      5.03699024	     -0.17746405	      0.66614708	     -0.02955081	     50.97603342	    -10.38730583	      0.91153653	     86.64426660	      1.51222773	      3.38847381	    -20.09436478	     -7.50622193	     54.97844797	     -3.36559010	      5.64447333	     89.53304180	      1.56264637	      6.38697450	     -7.88732525	     -7.50622193	    -49.42240645	      0.39052507	     -1.63202940	     22.83465618	     -3.07512313	     33.29816731	     61.99450753	     80.92720799	     17.41563569	     -5.21876410	     32.18798860	     74.66636063	     71.65547869
      1.01666670	     27.62466995	      2.27042363	      4.56671346	     -0.17712775	      0.66359381	     -0.02944795	     51.03574109	     -9.66547933	      0.93714019	     86.71552772	      1.51347147	      3.55277678	    -19.54979103	     -7.50596387	     53.98167866	     -4.09666275	      5.55795422	     88.42980717	      1.54339129	      7.11787905	     -6.77487139	     -7.50596387	    -49.51120477	      0.51142661	     -1.00927758	     22.82187122	     -3.25492016	     33.42952088	     62.00895633	     80.82307924	     17.08362977	     -4.76587238	     31.79106067	     74.42288646	     71.63823050
      1.03333330	     27.95876385	      1.90969231	      4.34766198	     -0.17669354	      0.66383076	     -0.02956601	     50.73799259	     -9.25502859	      0.75168461	     86.86115800	      1.51601320	      3.37719304	    -19.28311125	     -7.50557962	     52.67873806	     -4.53497634	      5.56445354	     87.46819070	      1.52660792	      7.37901479	     -5.40961539	     -7.50557962	    -49.83180899	      0.74148712	     -0.66144454	     22.74859816	     -3.42247239	     33.54718980	     62.20097087	     80.49682159	     16.80265579	     -4.43538338	     31.45969193	     74.16898761	     71.50627086
      1.05000000	     28.37140528	      1.66115457	      4.20717585	     -0.17079605	      0.66384100	     -0.03259788	     50.24376471	     -9.26786447	      0.53738554	     87.00823734	      1.51858022	      3.74613292	    -18.56866049	     -7.50549642	     51.83303345	     -4.84293925	      5.47995842	     87.32855053	      1.52417074	      7.56339689	     -5.15875181	     -7.50549642	    -49.75454047	      1.02580534	     -0.62657636	     22.43987021	     -3.53575962	     33.65879192	     62.15793607	     80.71919181	     16.41089582	     -4.12339575	     31.09662726	     73.58212135	     71.65743990
      1.06666670	     28.70051151	      1.42555650	      4.10945405	     -0.17785375	      0.66387767	     -0.02952263	     49.94892642	     -9.11022685	      0.21754321	     86.87621614	      1.51627601	      3.55626570	    -18.17914914	     -7.50540147	     51.45689001	     -5.08775310	      5.45431204	     87.07739167	      1.51978719	      8.02868405	     -4.35852645	     -7.50540147	    -49.85350033	      1.09815232	     -0.51062834	     22.35292366	     -3.61175622	     33.67827732	     62.21729795	     80.93674929	     16.34295208	     -3.99146427	     30.80323571	     73.29277232	     71.83444128
      1.08333330	     29.01282896	      1.27812907	      3.91329549	     -0.17853647	      0.66396390	     -0.02951508	     49.73926733	     -9.06983745	     -0.01274197	     86.86602616	      1.51609816	      3.48947234	    -18.00575082	     -7.50515538	     51.29017620	     -5.39181518	      5.52817336	     87.18641577	      1.52169002	      8.01896183	     -4.05152801	     -7.50515538	    -50.02680462	      1.19231676	     -0.46109635	     22.23683426	     -3.56411554	     33.44232136	     62.36580032	     80.79436312	     16.40476293	     -3.89477838	     30.57863975	     73.08511792	     71.78746015
      1.10000000	     28.91672944	      1.18405111	      3.48559832	     -0.17884649	      0.66106963	     -0.02941814	     50.10326139	     -8.99147195	     -0.09344505	     86.94631274	      1.51749943	      3.96030574	    -17.30718931	     -7.50462106	     51.66777242	     -5.63463524	      5.44672521	     87.45501613	      1.52637798	      8.08415519	     -3.88821183	     -7.50462106	    -49.86534770	      0.97725732	     -0.39149678	     22.12186197	     -3.56951586	     33.40138803	     62.71282597	     79.72113151	     16.44022611	     -3.84018372	     30.46495273	     73.08079528	     71.16520024
      1.11666670	     29.15847666	      0.76542415	      2.77962673	     -0.18483186	      0.66399549	     -0.02572906	     49.75273212	     -8.13284737	     -0.32263824	     86.07177650	      1.50223589	      2.92561944	    -17.66909879	     -7.50452620	     51.40645286	     -6.65065149	      5.42381309	     87.09013912	      1.52000967	      8.15459387	     -2.93428946	     -7.50452620	    -50.44023211	      0.81799984	      0.15655554	     22.23296287	     -3.57056464	     33.15983191	     63.15317954	     80.11755652	     16.73819258	     -3.75596411	     29.87250341	     73.40638868	     71.35161391
      1.13333330	     29.14733717	      0.67781901	      2.44102217	     -0.17885199	      0.66391170	     -0.02854591	     49.68874000	     -8.04551237	     -0.33519827	     85.64071806	      1.49471250	      2.86455398	    -17.24420965	     -7.50445226	     51.41849763	     -6.98007684	      5.30676188	     87.00566786	      1.51853537	      8.33237841	     -2.11895473	     -7.50445226	    -50.36098936	      0.73818168	      0.29080624	     21.84696404	     -3.68159753	     32.92258451	     63.53133366	     80.41751434	     16.54138887	     -3.72697939	     29.61692321	     73.55731234	     71.48341212
      1.15000000	     28.98811322	      0.45047783	      1.95446154	     -0.18513313	      0.66125231	     -0.02537391	     50.02265187	     -7.69003953	     -0.46173750	     85.27604925	      1.48834783	      2.33947121	    -17.33808581	     -7.50435306	     51.79452489	     -7.55635381	      5.26443512	     87.03041090	      1.51896722	      8.33167555	     -1.57508440	     -7.50435306	    -50.57194607	      0.54016647	      0.61660586	     21.73701079	     -3.78776565	     32.54150325	     64.33347948	     80.82599318	     16.69506371	     -3.72819664	     29.21889149	     74.26576096	     71.64755473
      1.16666670	     28.94880095	      0.44819612	      1.64816646	     -0.18520606	      0.65852708	     -0.02520524	     50.48560167	     -7.82420453	     -0.57839259	     85.40001438	      1.49051143	      2.39140678	    -16.90110302	     -7.50420571	     52.19889098	     -7.80451917	      5.21182009	     87.35761332	      1.52467798	      8.16335808	     -1.52085190	     -7.50420571	    -50.54563078	      0.42492847	      0.56790938	     21.81344637	     -3.71784785	     32.43814262	     64.58250934	     80.26753656	     17.18166627	     -3.76148917	     29.07322946	     74.20094894	     71.29779461
      1.18333330	     28.76722854	      0.40136183	      1.57168798	     -0.19042210	      0.66128384	     -0.02200254	     50.61239453	     -7.86624323	     -0.92783339	     84.99165037	      1.48338414	      1.95045779	    -16.60849554	     -7.50418706	     52.43536882	     -8.06549886	      5.18788056	     87.09273672	      1.52005501	      7.86260003	     -1.13939930	     -7.50418706	    -50.76380566	      0.30065558	      0.59719081	     21.98153992	     -3.58382475	     32.35432900	     64.81167777	     80.35999947	     17.68222463	     -4.00080448	     29.06363755	     74.33231675	     71.33766681
      1.20000000	     28.99574176	      0.34378423	      1.58907685	     -0.18983675	      0.65889484	     -0.02200399	     50.67489646	     -8.09415961	     -1.32287115	     85.27961590	      1.48841008	      1.62186026	    -16.56003179	     -7.50333459	     52.39242641	     -8.30487695	      5.32467987	     87.20299819	      1.52197944	      7.74845566	     -0.90214722	     -7.50333459	    -51.12342504	      0.32731768	      1.15483508	     21.54672939	     -3.61492690	     30.94122057	     65.86324860	     84.30711467	     18.59646133	     -4.18718620	     30.16284854	     74.17819585	     72.26264821
